# xmcd
#
# Track frame offsets: 
#        150
#        4454
#        34352
#        74947
#        106517
#        157258
#        198734
#
# Disc length: 3015 seconds
#
# Revision: 0
# Processed by: cddbd v1.5.2PL0 Copyright (c) Steve Scherf et al.
# Submitted via: ExactAudioCopy v0.99pb5
#
DISCID=690bc507
DTITLE=Popa Chubby - Electric Chubbyland (Live) [CD2)
DYEAR=2001
DGENRE=Electric Blues
TTITLE0=intro
TTITLE1=come on
TTITLE2=red house
TTITLE3=who know
TTITLE4=hey joe
TTITLE5=little wing
TTITLE6=voooo child
EXTD=
EXTT0=
EXTT1=
EXTT2=
EXTT3=
EXTT4=
EXTT5=
EXTT6=
PLAYORDER=
